<?xml version="1.0" standalone="no"?>
<!DOCTYPE svg PUBLIC "-//W3C//DTD SVG 20010904//EN"
 "http://www.w3.org/TR/2001/REC-SVG-20010904/DTD/svg10.dtd">
<svg version="1.0" xmlns="http://www.w3.org/2000/svg"
 width="538.000000pt" height="633.000000pt" viewBox="0 0 538.000000 633.000000"
 preserveAspectRatio="xMidYMid meet">

<g transform="translate(0.000000,633.000000) scale(0.100000,-0.100000)"
fill="#fff" stroke="none">
<path d="M2464 6006 c-28 -13 -67 -40 -87 -61 -37 -38 -77 -109 -77 -136 0
-11 -23 -21 -81 -33 -237 -51 -510 -165 -692 -288 l-59 -40 -51 23 c-39 19
-67 24 -122 23 -105 0 -157 -29 -283 -157 -129 -132 -157 -185 -150 -291 3
-44 13 -86 25 -111 l21 -40 -50 -80 c-117 -187 -234 -471 -275 -669 l-17 -83
-49 -17 c-57 -20 -118 -73 -152 -130 -34 -58 -49 -168 -42 -304 7 -129 26
-184 85 -245 36 -38 118 -87 144 -87 9 0 20 -31 31 -87 41 -200 147 -459 267
-653 l59 -97 -22 -44 c-31 -64 -34 -150 -7 -224 19 -51 39 -77 139 -176 98
-98 125 -119 176 -138 72 -28 162 -25 226 7 l42 21 96 -58 c119 -72 212 -119
325 -165 95 -38 305 -101 371 -111 38 -6 42 -9 59 -57 21 -59 83 -131 141
-161 37 -20 54 -22 235 -22 195 0 195 0 242 27 59 35 114 100 135 159 l17 46
95 21 c214 49 423 133 613 247 l120 72 56 -23 c72 -30 144 -31 218 -3 47 18
77 41 169 133 135 134 160 177 160 282 0 53 -6 83 -23 120 l-24 50 53 84 c120
194 219 432 270 651 l22 95 46 17 c68 24 129 81 162 151 28 59 29 66 29 218 0
171 -11 225 -57 286 -33 44 -97 90 -144 102 -36 10 -38 13 -49 68 -46 227
-164 516 -291 712 l-40 62 23 47 c32 67 32 177 -1 246 -33 68 -223 258 -288
287 -70 32 -181 31 -246 0 l-47 -24 -78 50 c-186 119 -461 233 -670 278 -81
17 -82 18 -92 54 -12 46 -58 110 -103 144 -62 48 -105 56 -286 56 -153 0 -170
-2 -217 -24z m-134 -614 c0 -21 77 -95 121 -118 l49 -24 -2 -326 -3 -326 -95
-32 c-52 -17 -125 -48 -161 -68 l-66 -36 -232 232 -232 232 17 62 c13 47 15
73 8 114 l-9 53 65 39 c102 61 235 120 355 159 151 48 185 55 185 39z m910
-42 c128 -42 255 -99 345 -153 l60 -37 1 -87 c0 -53 6 -99 14 -116 l14 -28
-233 -233 -233 -233 -91 47 c-51 26 -125 55 -164 66 l-73 18 0 332 0 332 23 6
c37 9 107 64 129 102 19 33 24 35 57 29 20 -3 88 -24 151 -45z m-1574 -931
l232 -231 -43 -82 c-35 -67 -63 -138 -91 -233 -3 -10 -78 -13 -333 -13 l-329
0 -11 32 c-16 45 -58 97 -98 121 -33 19 -35 22 -29 61 18 110 121 364 201 496
l36 59 67 -6 c46 -3 80 0 107 10 22 8 44 15 50 16 5 0 114 -103 241 -230z
m2346 210 c25 -6 68 -9 104 -5 l62 6 48 -81 c76 -130 147 -309 185 -463 11
-43 10 -50 -5 -58 -40 -23 -89 -75 -112 -120 l-24 -48 -328 0 -328 0 -18 72
c-10 40 -40 113 -66 163 l-47 90 231 233 c127 128 236 230 243 228 6 -3 31
-10 55 -17z m-1210 -414 c203 -43 364 -195 423 -400 23 -79 24 -213 1 -289
-75 -253 -278 -407 -536 -409 -533 -2 -760 673 -336 997 129 99 290 135 448
101z m-1022 -800 c23 -82 56 -161 90 -216 l28 -46 -233 -233 -233 -232 -36 12
c-39 13 -141 16 -172 6 -15 -5 -28 10 -66 77 -93 165 -147 295 -183 446 l-18
75 24 15 c43 27 97 89 109 126 l12 35 330 -2 331 -3 17 -60z m2518 12 c28 -50
63 -87 108 -113 17 -10 17 -14 -5 -95 -41 -154 -128 -358 -201 -472 -26 -40
-34 -47 -52 -41 -34 10 -124 7 -164 -6 l-36 -12 -233 232 -232 232 48 94 c26
52 55 125 65 164 l18 70 327 0 327 0 30 -53z m-1865 -667 l57 -13 0 -331 0
-331 -45 -24 c-43 -23 -92 -69 -113 -107 -9 -16 -14 -16 -83 1 -142 35 -305
102 -444 182 -44 26 -81 47 -82 47 -1 1 3 22 9 48 9 38 8 60 -6 115 l-16 68
230 230 230 230 103 -50 c57 -28 129 -57 160 -65z m1227 -377 c-8 -17 -14 -63
-14 -116 l-1 -87 -60 -37 c-123 -74 -314 -154 -454 -188 -73 -18 -75 -18 -85
1 -21 37 -95 102 -130 115 l-36 13 0 332 0 332 38 6 c54 10 158 51 227 90 l60
34 234 -233 235 -234 -14 -28z"/>
<path d="M690 1855 c-209 -71 -438 -223 -484 -319 -20 -42 -21 -115 -2 -159
19 -47 90 -104 137 -112 72 -12 114 2 197 69 98 77 192 127 307 161 113 34
157 62 184 117 42 89 17 194 -60 245 -66 44 -146 43 -279 -2z"/>
<path d="M4879 1737 c-20 -12 -71 -59 -114 -104 -94 -101 -166 -156 -282 -216
-235 -121 -563 -146 -943 -72 -156 31 -174 31 -236 0 -92 -46 -129 -152 -86
-247 37 -85 113 -118 357 -153 519 -76 915 -4 1252 226 93 64 284 252 313 308
35 70 23 165 -29 225 -50 57 -166 74 -232 33z"/>
<path d="M907 1144 c-223 -34 -406 -112 -581 -246 -105 -80 -129 -116 -134
-192 -5 -70 9 -107 56 -152 36 -35 83 -54 131 -54 55 0 87 14 150 66 121 99
269 166 431 195 97 17 324 15 467 -5 115 -15 367 -71 508 -111 137 -39 376
-113 455 -140 41 -14 199 -64 350 -111 480 -149 785 -214 1094 -235 375 -24
700 55 975 238 101 68 308 270 335 327 59 126 -34 276 -171 276 -67 0 -101
-20 -188 -109 -143 -147 -255 -223 -415 -281 -131 -48 -241 -64 -440 -63 -309
1 -584 60 -1205 258 -722 231 -990 302 -1279 340 -143 18 -417 18 -539 -1z"/>
</g>
</svg>
